<svg id="visual" viewBox="0 0 900 600" width="900" height="600" xmlns="http://www.w3.org/2000/svg" xmlns:xlink="http://www.w3.org/1999/xlink" version="1.1"><g stroke-width="1" stroke-linejoin="bevel"><path d="M464 329L478 215L421 283Z" fill="#246688" stroke="#246688"></path><path d="M478 215L419 203L421 283Z" fill="#112e42" stroke="#112e42"></path><path d="M464 329L594 285L478 215Z" fill="#1d4e6b" stroke="#1d4e6b"></path><path d="M363 435L494 390L464 329Z" fill="#19435d" stroke="#19435d"></path><path d="M464 329L494 390L594 285Z" fill="#0c2435" stroke="#0c2435"></path><path d="M594 285L577 174L478 215Z" fill="#246688" stroke="#246688"></path><path d="M478 215L412 101L419 203Z" fill="#0c2435" stroke="#0c2435"></path><path d="M419 203L337 299L421 283Z" fill="#112e42" stroke="#112e42"></path><path d="M421 283L337 299L464 329Z" fill="#081a28" stroke="#081a28"></path><path d="M494 390L573 407L594 285Z" fill="#246688" stroke="#246688"></path><path d="M522 66L412 101L478 215Z" fill="#246688" stroke="#246688"></path><path d="M419 203L287 201L337 299Z" fill="#15384f" stroke="#15384f"></path><path d="M703 195L586 113L577 174Z" fill="#1d4e6b" stroke="#1d4e6b"></path><path d="M577 174L522 66L478 215Z" fill="#205a7a" stroke="#205a7a"></path><path d="M406 511L517 464L494 390Z" fill="#205a7a" stroke="#205a7a"></path><path d="M494 390L517 464L573 407Z" fill="#15384f" stroke="#15384f"></path><path d="M337 299L363 435L464 329Z" fill="#00101c" stroke="#00101c"></path><path d="M412 101L287 201L419 203Z" fill="#1d4e6b" stroke="#1d4e6b"></path><path d="M337 299L330 437L363 435Z" fill="#277297" stroke="#277297"></path><path d="M586 113L522 66L577 174Z" fill="#246688" stroke="#246688"></path><path d="M228 377L330 437L337 299Z" fill="#1d4e6b" stroke="#1d4e6b"></path><path d="M363 435L406 511L494 390Z" fill="#00101c" stroke="#00101c"></path><path d="M594 285L703 195L577 174Z" fill="#19435d" stroke="#19435d"></path><path d="M621 0L538 0L522 66Z" fill="#1d4e6b" stroke="#1d4e6b"></path><path d="M729 291L703 195L594 285Z" fill="#081a28" stroke="#081a28"></path><path d="M330 437L406 511L363 435Z" fill="#081a28" stroke="#081a28"></path><path d="M721 373L594 285L573 407Z" fill="#00101c" stroke="#00101c"></path><path d="M721 373L729 291L594 285Z" fill="#081a28" stroke="#081a28"></path><path d="M366 0L330 68L412 101Z" fill="#246688" stroke="#246688"></path><path d="M412 101L330 68L287 201Z" fill="#0c2435" stroke="#0c2435"></path><path d="M680 538L721 373L573 407Z" fill="#277297" stroke="#277297"></path><path d="M171 319L337 299L287 201Z" fill="#112e42" stroke="#112e42"></path><path d="M171 319L228 377L337 299Z" fill="#081a28" stroke="#081a28"></path><path d="M330 437L264 467L406 511Z" fill="#205a7a" stroke="#205a7a"></path><path d="M621 0L522 66L586 113Z" fill="#15384f" stroke="#15384f"></path><path d="M522 66L366 0L412 101Z" fill="#277297" stroke="#277297"></path><path d="M484 600L603 530L517 464Z" fill="#205a7a" stroke="#205a7a"></path><path d="M517 464L603 530L573 407Z" fill="#15384f" stroke="#15384f"></path><path d="M228 377L264 467L330 437Z" fill="#205a7a" stroke="#205a7a"></path><path d="M538 0L366 0L522 66Z" fill="#15384f" stroke="#15384f"></path><path d="M780 208L739 127L703 195Z" fill="#19435d" stroke="#19435d"></path><path d="M703 195L739 127L586 113Z" fill="#246688" stroke="#246688"></path><path d="M236 87L287 201L330 68Z" fill="#0c2435" stroke="#0c2435"></path><path d="M236 87L190 188L287 201Z" fill="#112e42" stroke="#112e42"></path><path d="M306 0L236 87L330 68Z" fill="#246688" stroke="#246688"></path><path d="M739 127L621 0L586 113Z" fill="#205a7a" stroke="#205a7a"></path><path d="M799 314L780 208L729 291Z" fill="#205a7a" stroke="#205a7a"></path><path d="M729 291L780 208L703 195Z" fill="#246688" stroke="#246688"></path><path d="M190 188L171 319L287 201Z" fill="#00101c" stroke="#00101c"></path><path d="M228 377L207 465L264 467Z" fill="#081a28" stroke="#081a28"></path><path d="M366 0L306 0L330 68Z" fill="#297ea6" stroke="#297ea6"></path><path d="M721 373L799 314L729 291Z" fill="#246688" stroke="#246688"></path><path d="M824 389L799 314L721 373Z" fill="#00101c" stroke="#00101c"></path><path d="M406 511L484 600L517 464Z" fill="#1d4e6b" stroke="#1d4e6b"></path><path d="M392 600L484 600L406 511Z" fill="#0c2435" stroke="#0c2435"></path><path d="M83 392L207 465L228 377Z" fill="#297ea6" stroke="#297ea6"></path><path d="M280 600L392 600L406 511Z" fill="#1d4e6b" stroke="#1d4e6b"></path><path d="M593 600L680 538L603 530Z" fill="#297ea6" stroke="#297ea6"></path><path d="M603 530L680 538L573 407Z" fill="#081a28" stroke="#081a28"></path><path d="M280 600L406 511L264 467Z" fill="#15384f" stroke="#15384f"></path><path d="M680 538L765 462L721 373Z" fill="#15384f" stroke="#15384f"></path><path d="M484 600L593 600L603 530Z" fill="#1d4e6b" stroke="#1d4e6b"></path><path d="M780 208L774 84L739 127Z" fill="#081a28" stroke="#081a28"></path><path d="M739 127L735 0L621 0Z" fill="#205a7a" stroke="#205a7a"></path><path d="M900 215L774 84L780 208Z" fill="#246688" stroke="#246688"></path><path d="M765 462L824 389L721 373Z" fill="#205a7a" stroke="#205a7a"></path><path d="M799 314L900 215L780 208Z" fill="#1d4e6b" stroke="#1d4e6b"></path><path d="M306 0L232 0L236 87Z" fill="#19435d" stroke="#19435d"></path><path d="M94 77L86 216L190 188Z" fill="#00101c" stroke="#00101c"></path><path d="M774 84L735 0L739 127Z" fill="#0c2435" stroke="#0c2435"></path><path d="M207 465L280 600L264 467Z" fill="#00101c" stroke="#00101c"></path><path d="M680 538L808 600L765 462Z" fill="#15384f" stroke="#15384f"></path><path d="M900 472L900 368L824 389Z" fill="#19435d" stroke="#19435d"></path><path d="M593 600L686 600L680 538Z" fill="#081a28" stroke="#081a28"></path><path d="M94 77L190 188L236 87Z" fill="#246688" stroke="#246688"></path><path d="M190 188L86 216L171 319Z" fill="#19435d" stroke="#19435d"></path><path d="M171 319L83 392L228 377Z" fill="#19435d" stroke="#19435d"></path><path d="M86 216L72 302L171 319Z" fill="#15384f" stroke="#15384f"></path><path d="M207 465L161 600L280 600Z" fill="#205a7a" stroke="#205a7a"></path><path d="M72 302L83 392L171 319Z" fill="#277297" stroke="#277297"></path><path d="M900 368L799 314L824 389Z" fill="#1d4e6b" stroke="#1d4e6b"></path><path d="M900 368L900 308L799 314Z" fill="#00101c" stroke="#00101c"></path><path d="M774 84L822 0L735 0Z" fill="#205a7a" stroke="#205a7a"></path><path d="M900 308L900 215L799 314Z" fill="#19435d" stroke="#19435d"></path><path d="M232 0L94 77L236 87Z" fill="#112e42" stroke="#112e42"></path><path d="M86 216L0 277L72 302Z" fill="#112e42" stroke="#112e42"></path><path d="M900 472L824 389L765 462Z" fill="#277297" stroke="#277297"></path><path d="M900 66L822 0L774 84Z" fill="#00101c" stroke="#00101c"></path><path d="M83 392L104 513L207 465Z" fill="#1d4e6b" stroke="#1d4e6b"></path><path d="M104 513L161 600L207 465Z" fill="#00101c" stroke="#00101c"></path><path d="M686 600L808 600L680 538Z" fill="#205a7a" stroke="#205a7a"></path><path d="M808 600L900 472L765 462Z" fill="#205a7a" stroke="#205a7a"></path><path d="M900 215L900 66L774 84Z" fill="#081a28" stroke="#081a28"></path><path d="M232 0L95 0L94 77Z" fill="#277297" stroke="#277297"></path><path d="M0 170L0 277L86 216Z" fill="#297ea6" stroke="#297ea6"></path><path d="M83 392L0 492L104 513Z" fill="#0c2435" stroke="#0c2435"></path><path d="M72 302L0 411L83 392Z" fill="#00101c" stroke="#00101c"></path><path d="M0 170L86 216L94 77Z" fill="#112e42" stroke="#112e42"></path><path d="M0 67L0 170L94 77Z" fill="#277297" stroke="#277297"></path><path d="M0 277L0 411L72 302Z" fill="#246688" stroke="#246688"></path><path d="M104 513L94 600L161 600Z" fill="#1d4e6b" stroke="#1d4e6b"></path><path d="M900 66L900 0L822 0Z" fill="#112e42" stroke="#112e42"></path><path d="M0 600L94 600L104 513Z" fill="#19435d" stroke="#19435d"></path><path d="M95 0L0 67L94 77Z" fill="#1d4e6b" stroke="#1d4e6b"></path><path d="M0 411L0 492L83 392Z" fill="#297ea6" stroke="#297ea6"></path><path d="M808 600L900 600L900 472Z" fill="#1d4e6b" stroke="#1d4e6b"></path><path d="M95 0L0 0L0 67Z" fill="#277297" stroke="#277297"></path><path d="M0 492L0 600L104 513Z" fill="#00101c" stroke="#00101c"></path></g></svg>