<svg id="visual" viewBox="0 0 900 600" width="900" height="600" xmlns="http://www.w3.org/2000/svg" xmlns:xlink="http://www.w3.org/1999/xlink" version="1.1"><rect x="0" y="0" width="900" height="600" fill="#002233"></rect><path d="M0 477L21.5 480.5C43 484 86 491 128.8 494.2C171.7 497.3 214.3 496.7 257.2 478.7C300 460.7 343 425.3 385.8 423.5C428.7 421.7 471.3 453.3 514.2 453.3C557 453.3 600 421.7 642.8 426C685.7 430.3 728.3 470.7 771.2 478C814 485.3 857 459.7 878.5 446.8L900 434L900 601L878.5 601C857 601 814 601 771.2 601C728.3 601 685.7 601 642.8 601C600 601 557 601 514.2 601C471.3 601 428.7 601 385.8 601C343 601 300 601 257.2 601C214.3 601 171.7 601 128.8 601C86 601 43 601 21.5 601L0 601Z" fill="#0066FF" stroke-linecap="round" stroke-linejoin="miter"></path></svg>